<?xml version="1.0" standalone="no"?>
<!DOCTYPE svg PUBLIC "-//W3C//DTD SVG 20010904//EN"
 "http://www.w3.org/TR/2001/REC-SVG-20010904/DTD/svg10.dtd">
<svg version="1.0" xmlns="http://www.w3.org/2000/svg"
 width="900.000000pt" height="741.000000pt" viewBox="0 0 900.000000 741.000000"
 preserveAspectRatio="xMidYMid meet">
<g transform="translate(0.000000,741.000000) scale(0.100000,-0.100000)"
fill="#01102f" stroke="none">
<path d="M6843 7398 c1 -9 -23 -15 -78 -20 -44 -4 -118 -13 -165 -19 -47 -6
-112 -15 -145 -19 -33 -4 -78 -12 -100 -18 -22 -6 -78 -18 -125 -27 -47 -9
-130 -28 -185 -42 -55 -14 -116 -29 -135 -33 -19 -4 -48 -12 -65 -18 -16 -5
-59 -18 -95 -27 -76 -21 -419 -134 -500 -165 -30 -12 -66 -25 -80 -30 -23 -7
-75 -28 -125 -49 -11 -5 -92 -39 -180 -76 -159 -67 -580 -271 -705 -341 -79
-44 -153 -85 -240 -132 -57 -30 -281 -165 -358 -214 -15 -10 -34 -21 -42 -25
-17 -8 -105 -66 -218 -142 -45 -31 -93 -63 -107 -71 -36 -22 -169 -118 -358
-259 -166 -123 -169 -124 -201 -113 -46 17 -73 15 -115 -8 -46 -27 -71 -70
-71 -126 0 -36 6 -51 35 -83 58 -64 140 -65 201 -3 31 32 34 41 34 93 0 57 0
58 53 101 135 113 421 315 742 523 92 60 433 265 441 265 2 0 21 11 42 23 20
13 87 50 147 82 61 32 137 74 170 92 33 18 67 35 75 39 8 3 22 9 30 14 22 13
156 77 310 148 121 56 165 75 255 111 44 18 94 38 110 46 17 7 48 19 70 28 22
8 60 23 85 32 89 34 116 44 170 60 30 10 65 21 78 26 122 47 375 120 547 159
50 11 106 24 125 29 109 28 143 35 220 48 47 7 121 18 165 23 44 6 86 13 94
15 8 3 116 12 240 21 182 12 263 13 416 4 105 -6 215 -16 245 -22 30 -6 80
-14 110 -19 67 -10 175 -34 188 -43 6 -4 30 -10 54 -15 94 -20 246 -85 398
-172 22 -12 105 -73 164 -119 40 -31 138 -134 179 -188 123 -162 193 -318 240
-532 41 -183 41 -512 1 -710 -36 -182 -60 -276 -102 -400 -31 -94 -39 -110
-57 -110 -8 0 -32 -17 -55 -38 -37 -36 -40 -43 -40 -95 0 -69 30 -111 92 -127
94 -26 178 33 178 127 0 32 -8 52 -35 87 -19 26 -35 51 -35 56 0 5 8 36 19 67
54 168 103 372 116 491 7 63 14 84 26 76 5 -3 9 96 9 235 0 178 -3 240 -12
239 -13 -3 -26 33 -27 78 -1 38 -42 181 -85 299 -23 64 -104 204 -164 285
-160 216 -408 391 -692 488 -30 11 -82 27 -115 37 -33 10 -80 24 -104 31 -25
8 -59 14 -77 14 -18 0 -45 5 -61 11 -15 6 -75 15 -133 20 -73 6 -108 14 -116
24 -9 13 -55 15 -293 15 -216 0 -280 -3 -278 -12z"/>
<path d="M6545 6981 c-189 -14 -478 -63 -631 -106 -28 -8 -59 -15 -68 -15 -9
0 -38 -6 -64 -14 -26 -8 -76 -22 -112 -31 -60 -17 -129 -38 -300 -93 -148 -48
-328 -115 -393 -148 -16 -8 -36 -14 -46 -14 -9 0 -21 -4 -27 -9 -5 -5 -54 -28
-108 -51 -54 -23 -106 -46 -115 -50 -9 -5 -61 -30 -116 -56 -169 -79 -401
-197 -493 -252 -29 -18 -55 -32 -57 -32 -3 0 -37 -19 -77 -43 -40 -24 -80 -46
-88 -50 -8 -4 -27 -15 -42 -25 -14 -9 -48 -30 -75 -46 -68 -41 -235 -149 -318
-205 -121 -82 -239 -163 -264 -182 -21 -17 -26 -17 -52 -4 -39 21 -74 19 -119
-7 -95 -55 -91 -191 7 -239 52 -25 102 -20 149 16 31 23 61 96 49 116 -15 23
7 59 57 93 29 20 71 48 93 64 86 61 176 122 181 122 3 0 17 8 32 19 47 32 195
127 239 152 23 13 72 43 110 65 73 45 112 67 213 122 36 20 83 46 105 58 56
31 408 206 480 239 33 15 78 35 100 45 43 19 317 133 375 155 19 8 60 22 90
31 30 9 64 21 75 25 33 13 226 76 290 94 33 9 80 23 105 30 121 34 383 91 550
119 411 69 903 58 1170 -26 19 -6 51 -15 70 -19 82 -17 232 -82 350 -151 224
-131 404 -355 485 -605 48 -146 57 -209 62 -418 6 -216 -6 -327 -53 -515 -35
-139 -35 -140 -54 -140 -9 0 -35 -13 -56 -29 -53 -38 -73 -94 -54 -151 41
-123 222 -123 259 0 15 50 -1 112 -36 140 -29 22 -29 27 1 147 23 90 36 163
65 361 6 40 11 111 11 158 0 421 -157 775 -451 1019 -114 95 -332 205 -499
251 -30 9 -77 22 -105 30 -148 41 -268 54 -535 58 -146 2 -310 1 -365 -3z"/>
<path d="M985 5682 c-70 -24 -138 -98 -150 -166 -3 -17 -4 -642 -3 -1389 3
-1468 6 -1381 -49 -1337 -38 30 -105 27 -148 -6 -60 -45 -71 -140 -23 -204
l21 -29 -22 -68 c-12 -37 -29 -93 -38 -123 -9 -30 -22 -75 -29 -99 -8 -25 -14
-55 -14 -67 0 -12 -6 -49 -14 -81 -27 -109 -40 -355 -27 -493 25 -261 79 -420
216 -635 67 -105 251 -273 378 -346 127 -72 310 -147 415 -170 24 -5 47 -11
51 -13 30 -19 498 -70 601 -66 280 12 581 48 790 95 36 8 72 15 81 15 9 0 39
6 65 14 27 8 81 22 119 31 39 10 90 24 115 31 25 8 92 28 150 45 58 17 119 36
135 43 17 8 45 17 62 20 18 4 35 12 38 17 4 5 13 9 22 9 15 0 137 44 208 74
17 8 50 21 75 31 76 29 83 32 163 69 43 20 80 36 82 36 15 0 423 199 535 261
111 61 283 158 300 169 8 6 24 15 35 20 11 6 32 18 47 28 15 9 60 37 100 61
40 24 125 79 188 121 178 118 195 126 225 110 50 -27 123 -6 164 46 15 20 21
41 21 80 0 48 -4 57 -35 88 -92 93 -235 30 -235 -103 0 -37 -4 -43 -57 -84
-32 -24 -65 -47 -73 -51 -22 -10 -47 -25 -140 -87 -47 -31 -104 -67 -127 -80
-23 -13 -72 -43 -110 -65 -69 -42 -111 -66 -192 -111 -25 -13 -86 -46 -136
-73 -88 -48 -448 -228 -512 -256 -38 -16 -76 -33 -154 -68 -59 -26 -124 -51
-176 -67 -18 -5 -35 -14 -38 -19 -4 -6 -16 -10 -29 -10 -12 0 -26 -4 -32 -9
-8 -8 -45 -21 -229 -84 -276 -95 -623 -186 -785 -207 -36 -4 -87 -13 -115 -19
-212 -45 -708 -57 -940 -21 -143 22 -183 31 -295 67 -41 13 -89 28 -106 32
-16 4 -54 20 -83 35 -29 14 -57 26 -62 26 -5 0 -28 12 -52 27 -23 15 -54 34
-68 43 -154 89 -318 267 -405 440 -39 78 -82 210 -110 335 -13 60 -17 126 -17
261 0 218 20 352 87 594 33 120 54 170 76 180 76 36 96 49 112 75 10 16 18 39
18 50 1 46 15 48 63 12 34 -26 60 -37 99 -42 29 -3 1396 -5 3038 -3 l2986 3
41 33 c23 18 52 49 65 70 l23 37 3 691 c2 587 1 693 -11 703 -10 8 -65 11
-183 9 l-169 -3 -5 -516 -5 -516 -28 -36 c-57 -75 209 -68 -2748 -67 -2285 0
-2664 2 -2688 15 -15 7 -40 30 -54 49 l-27 35 0 1030 0 1030 32 37 c17 20 43
41 57 47 16 7 131 14 306 17 l280 5 0 195 0 195 -460 2 c-253 0 -469 -2 -480
-5z"/>
<path d="M4788 5033 c-22 -6 -21 12 -18 -223 2 -204 -3 -250 -26 -250 -8 0
-14 4 -14 8 0 16 -101 42 -160 42 -64 0 -167 -29 -210 -60 -29 -20 -93 -102
-118 -150 -27 -50 -51 -137 -68 -238 -19 -118 -16 -399 6 -487 50 -211 111
-314 212 -366 33 -17 60 -21 143 -21 116 -1 150 12 199 77 32 42 46 44 46 8 0
-16 3 -38 6 -51 6 -22 9 -23 123 -20 l116 3 0 865 0 865 -110 2 c-60 0 -118
-1 -127 -4z m-107 -686 c19 -12 42 -41 53 -62 26 -55 39 -248 31 -449 -7 -189
-24 -247 -80 -283 -51 -34 -91 -30 -130 11 -51 54 -65 137 -65 375 0 288 19
374 90 413 45 23 60 23 101 -5z"/>
<path d="M1435 4988 c-3 -7 -4 -389 -3 -848 l3 -835 145 0 145 0 5 517 c3 284
8 519 11 522 7 7 43 -106 95 -299 16 -61 36 -133 60 -215 7 -25 20 -72 30
-105 9 -33 23 -78 30 -100 8 -23 14 -49 14 -60 0 -11 6 -37 14 -60 7 -22 21
-67 31 -100 33 -115 21 -106 137 -103 100 3 103 4 110 28 13 46 82 273 114
375 6 22 26 87 44 145 18 58 45 148 61 200 16 52 37 120 45 150 9 30 22 69 29
85 8 17 17 40 20 53 4 13 10 21 13 17 3 -3 5 -231 4 -507 -1 -276 1 -512 4
-525 6 -23 8 -23 140 -23 l134 0 0 850 0 850 -165 0 -165 0 -14 -32 c-7 -18
-28 -80 -46 -138 -47 -148 -68 -215 -79 -242 -5 -12 -24 -70 -41 -128 -18 -58
-45 -141 -60 -185 -15 -44 -49 -147 -75 -230 -26 -82 -51 -154 -55 -159 -8 -8
-50 75 -50 100 0 7 -6 28 -14 46 -7 18 -21 58 -31 88 -9 30 -22 71 -29 90 -8
19 -28 82 -46 140 -64 206 -93 296 -105 330 -8 19 -21 60 -31 90 -9 30 -22 71
-30 90 -7 19 -16 46 -19 60 -4 14 -11 37 -17 53 l-10 27 -175 0 c-130 0 -175
-3 -178 -12z"/>
<path d="M6807 4623 c-9 -8 -9 -326 -1 -347 5 -14 30 -16 175 -16 156 0 169 1
179 19 11 21 14 290 4 329 -6 22 -8 22 -178 22 -95 0 -176 -3 -179 -7z"/>
<path d="M3435 4593 c-89 -27 -139 -56 -195 -112 -31 -31 -65 -74 -76 -96 -32
-63 -57 -160 -50 -189 l7 -27 141 3 c160 3 152 -1 177 95 7 23 25 56 42 72 25
26 38 31 77 31 73 -1 103 -40 118 -150 9 -74 10 -73 -221 -134 -49 -13 -103
-30 -120 -38 -97 -44 -175 -122 -227 -228 -31 -63 -32 -69 -32 -195 0 -114 3
-136 22 -177 64 -136 189 -194 364 -168 102 14 135 30 190 85 23 24 45 42 50
39 4 -3 8 -22 8 -42 0 -62 1 -63 159 -60 l143 3 -1 465 c-2 553 -10 619 -86
708 -40 47 -116 94 -182 113 -84 24 -235 25 -308 2z m235 -698 c24 -29 -8
-270 -42 -313 -48 -62 -104 -84 -157 -62 -42 17 -61 64 -61 150 0 132 47 191
180 226 62 16 66 16 80 -1z"/>
<path d="M5535 4594 c-85 -27 -113 -45 -171 -113 -99 -116 -148 -256 -159
-456 -24 -443 112 -702 390 -745 68 -10 92 -10 162 4 46 8 102 25 125 37 57
28 131 108 162 172 32 69 68 210 64 256 l-3 36 -119 3 c-126 3 -146 -3 -146
-43 0 -12 -9 -43 -20 -68 -26 -60 -70 -87 -139 -87 -48 0 -55 3 -95 44 -34 33
-46 55 -55 95 -18 82 -14 138 8 151 12 6 124 10 295 10 l276 0 0 61 c0 75 -25
254 -46 329 -25 89 -55 141 -119 206 -85 86 -154 117 -270 121 -62 2 -106 -2
-140 -13z m239 -237 c28 -35 31 -47 35 -118 l3 -79 -140 0 c-78 0 -143 4 -146
8 -10 17 16 147 36 179 28 46 44 53 117 50 61 -2 65 -4 95 -40z"/>
<path d="M7444 4597 c-12 -7 -14 -101 -14 -637 0 -345 3 -635 6 -644 5 -13 25
-16 120 -16 102 0 114 2 124 19 6 13 10 138 10 340 0 272 2 321 14 321 8 0 18
-10 21 -22 7 -26 112 -282 169 -411 7 -17 28 -68 46 -112 57 -143 40 -130 162
-133 103 -3 106 -2 112 20 9 36 7 1251 -3 1266 -6 10 -39 14 -122 15 l-114 1
-5 -256 c-3 -141 -8 -259 -12 -263 -5 -5 -48 76 -48 91 0 2 -14 34 -31 71 -61
137 -105 236 -140 321 -8 17 -18 32 -24 33 -58 5 -260 2 -271 -4z"/>
<path d="M363 3064 c-70 -35 -95 -132 -52 -201 l21 -34 -37 -87 c-21 -48 -48
-110 -61 -138 -25 -54 -50 -121 -64 -169 -5 -16 -27 -84 -48 -150 -56 -170
-72 -228 -72 -258 0 -14 -4 -37 -9 -50 -35 -92 -56 -599 -31 -729 29 -144 43
-206 57 -243 8 -22 22 -58 30 -80 23 -62 74 -166 105 -212 15 -23 28 -45 28
-48 0 -15 102 -134 177 -206 68 -66 178 -151 223 -172 8 -4 29 -16 45 -27 40
-25 159 -84 213 -104 114 -43 118 -45 282 -92 48 -14 187 -38 313 -54 101 -13
624 -13 741 0 217 24 414 54 561 87 107 23 284 67 355 87 25 8 72 21 105 31
33 10 76 23 95 30 19 7 62 20 95 30 33 9 71 21 83 26 13 5 52 18 85 30 34 11
94 33 132 48 39 16 108 43 155 61 112 42 167 64 275 112 50 22 117 52 149 67
94 41 451 222 566 286 114 64 213 119 245 135 11 6 32 18 47 28 15 9 89 55
165 101 185 113 519 334 643 426 55 41 103 75 107 75 3 0 14 7 24 16 16 14 20
14 48 0 57 -30 120 -16 169 37 19 20 23 36 23 83 0 56 -2 61 -40 96 -35 33
-47 38 -87 38 -83 0 -144 -63 -144 -149 0 -22 -12 -39 -54 -75 -30 -25 -57
-46 -61 -46 -4 0 -32 -20 -63 -44 -68 -51 -191 -136 -199 -136 -3 0 -22 -13
-43 -30 -21 -16 -41 -30 -45 -30 -4 0 -24 -13 -44 -28 -20 -16 -98 -66 -174
-113 -76 -46 -150 -92 -165 -101 -15 -10 -36 -22 -47 -28 -11 -6 -33 -19 -50
-29 -43 -27 -152 -90 -205 -118 -25 -14 -73 -40 -107 -59 -130 -71 -318 -168
-413 -211 -36 -17 -94 -44 -130 -61 -158 -73 -201 -92 -209 -92 -5 0 -22 -7
-38 -15 -31 -16 -68 -32 -163 -68 -71 -28 -89 -35 -260 -96 -63 -23 -124 -45
-135 -50 -21 -9 -191 -62 -280 -87 -27 -8 -64 -19 -81 -24 -16 -6 -50 -14 -75
-19 -24 -5 -89 -20 -144 -34 -351 -87 -716 -137 -1011 -137 -267 0 -453 19
-674 71 -344 80 -598 214 -790 416 -72 76 -122 140 -137 173 -6 15 -16 31 -21
34 -25 15 -90 160 -132 291 -97 306 -88 717 25 1110 34 119 95 300 122 365 6
14 28 66 48 115 65 157 70 164 116 171 28 5 54 19 80 44 35 33 39 42 39 84 0
60 -24 102 -72 127 -45 23 -82 24 -125 3z"/>
<path d="M7910 2440 c-25 -25 -25 -40 -2 -40 17 0 52 28 52 42 0 17 -33 15
-50 -2z"/>
<path d="M867 2443 c-4 -3 -7 -78 -7 -165 l0 -159 28 3 c27 3 27 4 30 88 3 88
16 125 27 74 3 -16 14 -58 24 -94 18 -64 19 -65 52 -65 32 0 35 3 42 40 5 22
19 60 30 85 l22 45 3 -80 c3 -86 12 -106 43 -98 19 5 19 13 17 167 l-3 161
-48 3 c-32 2 -48 -1 -51 -10 -2 -7 -11 -47 -21 -88 -24 -106 -26 -112 -33
-106 -9 10 -38 98 -46 141 -4 22 -12 46 -18 53 -11 13 -80 17 -91 5z"/>
<path d="M2774 2436 c-10 -26 4 -48 28 -44 17 2 23 10 23 28 0 18 -6 26 -23
28 -13 2 -25 -3 -28 -12z"/>
<path d="M3002 2438 c-16 -16 -15 -48 1 -48 17 0 59 44 50 53 -10 11 -38 8
-51 -5z"/>
<path d="M3612 2438 c-15 -15 -17 -285 -2 -308 7 -12 30 -15 99 -15 82 0 92 3
116 25 41 38 55 74 55 140 0 69 -15 106 -60 144 -28 23 -40 26 -114 26 -50 0
-87 -5 -94 -12z m178 -70 c29 -31 29 -149 0 -178 -25 -25 -105 -28 -114 -4 -8
21 -8 189 1 197 3 4 26 7 49 7 32 0 49 -6 64 -22z"/>
<path d="M5386 2434 c-3 -9 -6 -80 -6 -159 0 -148 7 -173 43 -159 13 5 17 30
19 154 2 81 2 155 0 164 -4 21 -48 21 -56 0z"/>
<path d="M5517 2444 c-4 -4 -7 -78 -7 -165 0 -164 4 -178 45 -163 13 5 15 31
13 168 -3 153 -4 161 -23 164 -12 2 -24 0 -28 -4z"/>
<path d="M6067 2444 c-4 -4 -7 -79 -7 -166 l0 -159 28 3 27 3 0 160 c0 153 -1
160 -20 163 -12 2 -24 0 -28 -4z"/>
<path d="M7314 2435 c-10 -25 4 -47 28 -43 17 2 24 11 26 31 3 23 0 27 -23 27
-14 0 -28 -7 -31 -15z"/>
<path d="M1799 2378 c-18 -36 -20 -47 -10 -73 6 -17 11 -56 11 -86 0 -76 16
-103 63 -107 42 -4 63 22 35 42 -24 18 -38 52 -38 96 0 34 4 42 25 50 15 6 25
17 25 29 0 10 -11 26 -25 35 -14 9 -25 25 -25 36 0 37 -38 24 -61 -22z"/>
<path d="M1273 2336 c-22 -19 -25 -27 -16 -37 10 -10 20 -10 52 1 74 24 102
-16 29 -43 -24 -8 -53 -18 -65 -22 -30 -8 -44 -54 -27 -87 18 -35 34 -39 125
-32 l79 7 0 77 c0 86 -13 136 -40 150 -36 19 -107 12 -137 -14z m103 -130 c9
-23 -15 -56 -40 -56 -22 0 -36 16 -36 41 0 10 35 27 58 28 7 1 15 -5 18 -13z"/>
<path d="M1521 2341 c-14 -25 -14 -186 -1 -211 6 -12 17 -16 30 -13 16 4 20
14 20 52 0 81 11 122 35 133 16 7 29 7 43 -1 19 -10 22 -22 24 -99 3 -85 3
-87 28 -87 25 0 25 1 28 102 3 99 2 101 -24 122 -29 22 -78 28 -90 10 -6 -11
-33 -9 -66 5 -11 5 -20 1 -27 -13z"/>
<path d="M1988 2337 c-36 -30 -48 -58 -48 -108 0 -49 30 -104 63 -113 48 -13
96 -6 123 17 16 14 24 29 20 35 -9 14 -56 16 -56 3 0 -20 -41 -23 -61 -5 -35
32 -24 43 47 46 81 4 94 16 76 75 -21 69 -109 96 -164 50z m86 -33 c20 -8 21
-40 1 -48 -18 -7 -65 10 -65 23 0 10 28 30 42 31 3 0 13 -3 22 -6z"/>
<path d="M2224 2349 c-3 -6 -8 -56 -10 -110 -2 -78 1 -102 12 -114 34 -34 54
-2 54 84 0 48 4 65 21 82 45 45 79 1 79 -103 0 -69 9 -83 43 -66 14 7 17 23
17 89 0 80 -9 113 -39 136 -21 16 -66 16 -91 1 -16 -10 -24 -10 -40 0 -24 15
-37 15 -46 1z"/>
<path d="M2544 2340 c-65 -42 -67 -162 -5 -212 51 -40 171 -9 171 44 0 28 -26
32 -59 9 -54 -38 -91 -20 -91 46 0 73 27 95 79 69 17 -9 37 -16 46 -16 24 0
18 37 -11 59 -34 27 -89 27 -130 1z"/>
<path d="M2782 2348 c-16 -16 -16 -210 0 -226 7 -7 17 -8 30 -1 16 8 18 23 18
118 0 90 -3 110 -16 115 -20 8 -18 8 -32 -6z"/>
<path d="M2933 2333 c-62 -56 -63 -146 -2 -197 33 -28 86 -34 133 -16 55 20
84 121 52 178 -35 64 -129 82 -183 35z m120 -47 c17 -26 19 -60 4 -92 -14 -27
-22 -34 -46 -34 -68 0 -86 120 -21 143 19 7 53 -2 63 -17z"/>
<path d="M3191 2346 c-8 -9 -11 -48 -9 -117 l3 -104 30 0 30 0 5 82 c3 45 7
84 10 86 3 3 17 8 31 12 39 10 54 -16 52 -89 -2 -71 2 -92 22 -100 31 -11 45
22 45 105 0 76 -2 82 -29 110 -30 30 -83 40 -97 18 -6 -11 -33 -9 -65 5 -9 4
-21 1 -28 -8z"/>
<path d="M3979 2344 c-70 -44 -66 -197 7 -224 63 -24 144 -1 144 41 0 23 -41
27 -60 4 -18 -21 -46 -19 -64 7 -22 31 -12 38 53 38 33 0 65 6 76 14 18 13 18
17 5 56 -23 71 -100 101 -161 64z m92 -50 c11 -14 10 -18 -6 -30 -10 -8 -22
-14 -25 -14 -3 0 -15 6 -25 14 -16 12 -17 16 -6 30 7 9 21 16 31 16 10 0 24
-7 31 -16z"/>
<path d="M4218 2337 c-56 -45 -17 -117 70 -131 38 -6 59 -27 46 -47 -9 -14
-60 -10 -74 6 -15 17 -56 20 -66 4 -14 -23 33 -53 93 -57 48 -3 63 0 86 18 60
48 20 125 -73 137 -30 4 -40 10 -40 23 0 26 24 31 64 15 33 -14 66 -12 66 4 0
4 -10 17 -23 29 -33 31 -111 30 -149 -1z"/>
<path d="M4493 2341 c-45 -38 -15 -69 39 -40 24 13 68 4 68 -14 0 -7 -30 -24
-66 -37 -49 -17 -68 -29 -75 -48 -24 -61 18 -93 118 -88 39 2 75 6 80 9 5 4 9
47 8 98 -1 87 -2 93 -29 115 -35 31 -110 33 -143 5z m104 -136 c8 -21 -26 -57
-51 -53 -12 2 -22 12 -24 22 -7 36 62 64 75 31z"/>
<path d="M4734 2351 c-2 -2 -4 -55 -4 -118 0 -92 3 -115 15 -119 31 -12 45 15
45 85 0 74 12 98 50 103 19 2 25 9 25 28 0 24 -2 25 -63 25 -35 0 -66 -2 -68
-4z"/>
<path d="M4914 2347 c-2 -7 -3 -62 -2 -123 3 -109 3 -109 28 -109 24 0 25 2
30 83 5 84 14 101 51 102 22 0 43 26 35 45 -6 17 -47 20 -63 4 -8 -8 -17 -8
-31 0 -27 15 -42 14 -48 -2z"/>
<path d="M5122 2326 c-35 -33 -37 -37 -36 -96 1 -82 28 -111 108 -118 54 -4
57 -3 96 36 33 33 40 46 40 78 0 75 -60 134 -135 134 -26 0 -45 -9 -73 -34z
m135 -61 c13 -28 13 -36 2 -60 -20 -40 -42 -51 -76 -39 -26 9 -28 13 -28 64 0
47 3 56 23 66 34 17 61 6 79 -31z"/>
<path d="M5689 2343 c-38 -23 -59 -65 -59 -117 0 -36 6 -52 28 -77 24 -27 37
-33 84 -37 51 -4 58 -2 91 28 34 30 37 36 37 87 0 65 -9 85 -54 112 -40 25
-91 27 -127 4z m111 -62 c15 -30 12 -82 -7 -103 -53 -59 -134 33 -87 100 20
29 79 31 94 3z"/>
<path d="M6201 2346 c-8 -9 -11 -50 -9 -117 3 -103 3 -104 28 -104 24 0 25 3
31 79 4 61 9 81 24 92 23 17 30 17 56 4 16 -9 19 -22 19 -96 0 -66 3 -86 15
-90 34 -13 45 15 45 111 0 89 -1 95 -26 114 -30 24 -74 27 -104 9 -16 -10 -24
-10 -40 0 -25 15 -25 15 -39 -2z"/>
<path d="M6499 2331 c-26 -27 -29 -36 -29 -95 0 -56 3 -68 25 -91 26 -25 41
-29 103 -25 25 1 32 -2 32 -17 0 -40 -54 -59 -80 -27 -17 19 -75 15 -75 -6 0
-22 64 -60 102 -60 55 0 99 24 112 60 17 50 15 265 -3 279 -11 9 -19 9 -34 0
-16 -10 -26 -10 -47 -1 -42 19 -74 14 -106 -17z m123 -44 c42 -63 -14 -150
-71 -111 -28 20 -31 107 -3 123 20 12 63 5 74 -12z"/>
<path d="M6802 2344 c-71 -49 -68 -197 4 -224 48 -19 103 -12 130 15 14 14 22
30 19 35 -9 15 -51 12 -65 -5 -17 -21 -47 -19 -60 4 -18 35 -12 41 46 41 90 0
113 25 80 89 -30 57 -106 79 -154 45z m89 -50 c11 -14 10 -18 -6 -30 -10 -8
-22 -14 -25 -14 -3 0 -15 6 -25 14 -16 12 -17 16 -6 30 7 9 21 16 31 16 10 0
24 -7 31 -16z"/>
<path d="M7031 2341 c-12 -21 -15 -178 -5 -205 3 -9 16 -16 29 -16 29 0 35 16
35 91 0 46 5 64 20 79 47 47 80 7 80 -96 0 -75 8 -90 43 -72 14 7 17 23 17 96
0 48 -4 92 -8 98 -25 36 -102 58 -118 33 -6 -11 -33 -9 -66 5 -11 5 -20 1 -27
-13z"/>
<path d="M7316 2345 c-3 -9 -6 -61 -6 -115 0 -102 10 -127 44 -114 14 6 16 22
14 123 -3 110 -4 116 -24 119 -13 2 -24 -4 -28 -13z"/>
<path d="M7466 2326 c-34 -31 -36 -37 -36 -94 0 -84 25 -113 103 -120 50 -4
58 -2 82 22 14 14 23 31 20 36 -9 15 -43 12 -70 -6 -23 -15 -27 -15 -50 0 -47
31 -32 46 45 46 82 0 96 13 79 73 -22 81 -110 103 -173 43z m114 -32 c6 -7
-14 -37 -23 -35 -4 0 -18 1 -32 1 -18 0 -25 5 -25 19 0 11 6 22 13 25 12 5 58
-2 67 -10z"/>
<path d="M7797 2353 c-5 -4 -27 -7 -50 -8 l-42 0 0 -110 0 -110 28 -3 c27 -3
27 -3 27 53 0 77 20 123 57 127 22 2 28 8 28 28 0 18 -6 26 -20 28 -12 2 -24
-1 -28 -5z"/>
<path d="M7903 2353 c-9 -3 -13 -37 -13 -119 l0 -115 28 3 27 3 3 104 c3 117
-6 140 -45 124z"/>
<path d="M8053 2348 c-26 -13 -38 -37 -24 -51 7 -7 24 -6 50 3 43 14 71 9 71
-14 0 -9 -21 -21 -52 -31 -53 -17 -98 -54 -98 -80 0 -8 10 -26 23 -41 23 -26
24 -26 108 -18 57 6 84 13 83 22 -1 6 -2 52 -2 102 -2 88 -2 90 -32 105 -33
17 -95 19 -127 3z m95 -154 c4 -28 -22 -48 -53 -40 -32 8 -34 43 -2 56 32 13
52 8 55 -16z"/>
</g>
</svg>
